<mxfile host="app.diagrams.net" modified="2020-12-03T21:23:00.179Z" agent="5.0 (X11)" etag="hPO_rFLFz6U2qwRVTJsd" version="13.10.7" type="github">
  <diagram id="SyRvYKCuUlZWcbp09nOY" name="Page-1">
    <mxGraphModel dx="1483" dy="1948" grid="1" gridSize="10" guides="1" tooltips="1" connect="1" arrows="1" fold="1" page="1" pageScale="1" pageWidth="850" pageHeight="1100" math="0" shadow="0">
      <root>
        <mxCell id="0" />
        <mxCell id="1" parent="0" />
        <mxCell id="QEtR1k8EBoc_k3mtnwe0-63" value="" style="rounded=0;whiteSpace=wrap;html=1;" parent="1" vertex="1">
          <mxGeometry x="40" y="-350" width="770" height="210" as="geometry" />
        </mxCell>
        <mxCell id="QEtR1k8EBoc_k3mtnwe0-64" value="" style="pointerEvents=1;shadow=0;dashed=0;html=1;strokeColor=none;labelPosition=center;verticalLabelPosition=bottom;verticalAlign=top;align=center;fillColor=#505050;shape=mxgraph.mscae.intune.user_group" parent="1" vertex="1">
          <mxGeometry x="45" y="-334.5" width="50" height="37" as="geometry" />
        </mxCell>
        <mxCell id="QEtR1k8EBoc_k3mtnwe0-65" value="Группа МФТИ" style="text;html=1;strokeColor=none;fillColor=none;align=center;verticalAlign=middle;whiteSpace=wrap;rounded=0;" parent="1" vertex="1">
          <mxGeometry x="70" y="-326" width="160" height="20" as="geometry" />
        </mxCell>
        <mxCell id="QEtR1k8EBoc_k3mtnwe0-88" style="edgeStyle=orthogonalEdgeStyle;rounded=0;orthogonalLoop=1;jettySize=auto;html=1;exitX=0.5;exitY=0;exitDx=0;exitDy=0;entryX=0.618;entryY=1.002;entryDx=0;entryDy=0;entryPerimeter=0;" parent="1" source="QEtR1k8EBoc_k3mtnwe0-60" target="QEtR1k8EBoc_k3mtnwe0-17" edge="1">
          <mxGeometry relative="1" as="geometry">
            <mxPoint x="520" y="-824.5" as="targetPoint" />
          </mxGeometry>
        </mxCell>
        <mxCell id="QEtR1k8EBoc_k3mtnwe0-60" value="" style="rounded=0;whiteSpace=wrap;html=1;" parent="1" vertex="1">
          <mxGeometry x="40" y="-734.5" width="770" height="304.5" as="geometry" />
        </mxCell>
        <mxCell id="QEtR1k8EBoc_k3mtnwe0-61" value="" style="pointerEvents=1;shadow=0;dashed=0;html=1;strokeColor=none;labelPosition=center;verticalLabelPosition=bottom;verticalAlign=top;align=center;fillColor=#505050;shape=mxgraph.mscae.intune.user_group" parent="1" vertex="1">
          <mxGeometry x="45" y="-719" width="50" height="37" as="geometry" />
        </mxCell>
        <mxCell id="QEtR1k8EBoc_k3mtnwe0-62" value="Группа iPavlov" style="text;html=1;strokeColor=none;fillColor=none;align=center;verticalAlign=middle;whiteSpace=wrap;rounded=0;" parent="1" vertex="1">
          <mxGeometry x="70" y="-710.5" width="160" height="20" as="geometry" />
        </mxCell>
        <mxCell id="QEtR1k8EBoc_k3mtnwe0-98" style="edgeStyle=orthogonalEdgeStyle;rounded=0;orthogonalLoop=1;jettySize=auto;html=1;exitX=0.25;exitY=0;exitDx=0;exitDy=0;entryX=0.5;entryY=0;entryDx=0;entryDy=0;" parent="1" source="QEtR1k8EBoc_k3mtnwe0-54" target="QEtR1k8EBoc_k3mtnwe0-36" edge="1">
          <mxGeometry relative="1" as="geometry" />
        </mxCell>
        <mxCell id="QEtR1k8EBoc_k3mtnwe0-54" value="" style="rounded=0;whiteSpace=wrap;html=1;" parent="1" vertex="1">
          <mxGeometry x="570" y="-674.5" width="230" height="120" as="geometry" />
        </mxCell>
        <mxCell id="QEtR1k8EBoc_k3mtnwe0-99" style="edgeStyle=orthogonalEdgeStyle;rounded=0;orthogonalLoop=1;jettySize=auto;html=1;exitX=0.25;exitY=0;exitDx=0;exitDy=0;entryX=0.221;entryY=0.222;entryDx=0;entryDy=0;entryPerimeter=0;" parent="1" source="QEtR1k8EBoc_k3mtnwe0-36" target="QEtR1k8EBoc_k3mtnwe0-60" edge="1">
          <mxGeometry relative="1" as="geometry" />
        </mxCell>
        <mxCell id="QEtR1k8EBoc_k3mtnwe0-36" value="" style="rounded=0;whiteSpace=wrap;html=1;" parent="1" vertex="1">
          <mxGeometry x="370" y="-672.21" width="176" height="117.71" as="geometry" />
        </mxCell>
        <mxCell id="QEtR1k8EBoc_k3mtnwe0-25" value="" style="rounded=0;whiteSpace=wrap;html=1;" parent="1" vertex="1">
          <mxGeometry x="50" y="-674.5" width="294" height="120" as="geometry" />
        </mxCell>
        <mxCell id="QEtR1k8EBoc_k3mtnwe0-17" value="" style="rounded=0;whiteSpace=wrap;html=1;" parent="1" vertex="1">
          <mxGeometry x="45" y="-1030" width="760" height="210" as="geometry" />
        </mxCell>
        <mxCell id="QEtR1k8EBoc_k3mtnwe0-6" value="" style="aspect=fixed;pointerEvents=1;shadow=0;dashed=0;html=1;strokeColor=none;labelPosition=center;verticalLabelPosition=bottom;verticalAlign=top;align=center;fillColor=#00188D;shape=mxgraph.mscae.enterprise.web_server" parent="1" vertex="1">
          <mxGeometry x="590" y="-624.5" width="41.8" height="55" as="geometry" />
        </mxCell>
        <mxCell id="QEtR1k8EBoc_k3mtnwe0-10" value="" style="aspect=fixed;pointerEvents=1;shadow=0;dashed=0;html=1;strokeColor=none;labelPosition=center;verticalLabelPosition=bottom;verticalAlign=top;align=center;fillColor=#00188D;shape=mxgraph.azure.server_rack" parent="1" vertex="1">
          <mxGeometry x="57" y="-634.5" width="50" height="50" as="geometry" />
        </mxCell>
        <mxCell id="QEtR1k8EBoc_k3mtnwe0-50" style="edgeStyle=orthogonalEdgeStyle;rounded=0;orthogonalLoop=1;jettySize=auto;html=1;entryX=1;entryY=0.5;entryDx=0;entryDy=0;entryPerimeter=0;" parent="1" source="QEtR1k8EBoc_k3mtnwe0-12" target="QEtR1k8EBoc_k3mtnwe0-10" edge="1">
          <mxGeometry relative="1" as="geometry" />
        </mxCell>
        <mxCell id="QEtR1k8EBoc_k3mtnwe0-12" value="" style="aspect=fixed;pointerEvents=1;shadow=0;dashed=0;html=1;strokeColor=none;labelPosition=center;verticalLabelPosition=bottom;verticalAlign=top;align=center;fillColor=#00188D;shape=mxgraph.mscae.enterprise.database_server" parent="1" vertex="1">
          <mxGeometry x="175" y="-634.5" width="38" height="50" as="geometry" />
        </mxCell>
        <mxCell id="QEtR1k8EBoc_k3mtnwe0-48" style="edgeStyle=orthogonalEdgeStyle;rounded=0;orthogonalLoop=1;jettySize=auto;html=1;entryX=1;entryY=0.5;entryDx=0;entryDy=0;entryPerimeter=0;" parent="1" source="QEtR1k8EBoc_k3mtnwe0-13" target="QEtR1k8EBoc_k3mtnwe0-12" edge="1">
          <mxGeometry relative="1" as="geometry" />
        </mxCell>
        <mxCell id="QEtR1k8EBoc_k3mtnwe0-13" value="" style="aspect=fixed;html=1;points=[];align=center;image;fontSize=12;image=img/lib/mscae/Cache_Redis_Product.svg;" parent="1" vertex="1">
          <mxGeometry x="264" y="-630.5" width="50" height="42" as="geometry" />
        </mxCell>
        <mxCell id="QEtR1k8EBoc_k3mtnwe0-15" value="" style="pointerEvents=1;shadow=0;dashed=0;html=1;strokeColor=none;labelPosition=center;verticalLabelPosition=bottom;verticalAlign=top;align=center;fillColor=#505050;shape=mxgraph.mscae.intune.user_group" parent="1" vertex="1">
          <mxGeometry x="50" y="-1014.5" width="50" height="37" as="geometry" />
        </mxCell>
        <mxCell id="QEtR1k8EBoc_k3mtnwe0-20" value="Группа заказчики и интеграторы" style="text;html=1;strokeColor=none;fillColor=none;align=center;verticalAlign=middle;whiteSpace=wrap;rounded=0;" parent="1" vertex="1">
          <mxGeometry x="75" y="-1006" width="265" height="20" as="geometry" />
        </mxCell>
        <mxCell id="QEtR1k8EBoc_k3mtnwe0-23" value="" style="aspect=fixed;html=1;points=[];align=center;image;fontSize=12;image=img/lib/mscae/WebHosting.svg;" parent="1" vertex="1">
          <mxGeometry x="681" y="-914.5" width="50" height="50" as="geometry" />
        </mxCell>
        <mxCell id="QEtR1k8EBoc_k3mtnwe0-24" value="&lt;div&gt;Инфраструктура&lt;/div&gt;&lt;div&gt;ИАСУП, СУИТ&lt;/div&gt;" style="text;html=1;strokeColor=none;fillColor=none;align=center;verticalAlign=middle;whiteSpace=wrap;rounded=0;" parent="1" vertex="1">
          <mxGeometry x="653" y="-944.5" width="152" height="20" as="geometry" />
        </mxCell>
        <mxCell id="QEtR1k8EBoc_k3mtnwe0-26" value="" style="rounded=0;whiteSpace=wrap;html=1;" parent="1" vertex="1">
          <mxGeometry x="60" y="-955" width="310" height="120.5" as="geometry" />
        </mxCell>
        <mxCell id="QEtR1k8EBoc_k3mtnwe0-1" value="" style="aspect=fixed;html=1;points=[];align=center;image;fontSize=12;image=img/lib/mscae/WebHosting.svg;" parent="1" vertex="1">
          <mxGeometry x="75" y="-914.5" width="50" height="50" as="geometry" />
        </mxCell>
        <mxCell id="QEtR1k8EBoc_k3mtnwe0-21" value="&lt;div&gt;Инфраструктура &lt;br&gt;&lt;/div&gt;&lt;div&gt;Express&lt;/div&gt;" style="text;html=1;strokeColor=none;fillColor=none;align=center;verticalAlign=middle;whiteSpace=wrap;rounded=0;" parent="1" vertex="1">
          <mxGeometry x="65" y="-944.5" width="110" height="20" as="geometry" />
        </mxCell>
        <mxCell id="QEtR1k8EBoc_k3mtnwe0-16" value="" style="pointerEvents=1;shadow=0;dashed=0;html=1;strokeColor=none;labelPosition=center;verticalLabelPosition=bottom;verticalAlign=top;align=center;fillColor=#505050;shape=mxgraph.mscae.intune.hybrid" parent="1" vertex="1">
          <mxGeometry x="294" y="-914.5" width="50" height="39" as="geometry" />
        </mxCell>
        <mxCell id="QEtR1k8EBoc_k3mtnwe0-22" value="Express messenger" style="text;html=1;strokeColor=none;fillColor=none;align=center;verticalAlign=middle;whiteSpace=wrap;rounded=0;" parent="1" vertex="1">
          <mxGeometry x="227" y="-944.5" width="152" height="20" as="geometry" />
        </mxCell>
        <mxCell id="QEtR1k8EBoc_k3mtnwe0-29" value="&lt;div&gt;Сервис &lt;br&gt;&lt;/div&gt;&lt;div&gt;REST API&lt;/div&gt;" style="text;html=1;strokeColor=none;fillColor=none;align=center;verticalAlign=middle;whiteSpace=wrap;rounded=0;" parent="1" vertex="1">
          <mxGeometry x="470" y="-1014.5" width="80" height="20" as="geometry" />
        </mxCell>
        <mxCell id="QEtR1k8EBoc_k3mtnwe0-33" style="edgeStyle=orthogonalEdgeStyle;rounded=0;orthogonalLoop=1;jettySize=auto;html=1;entryX=1;entryY=0.5;entryDx=0;entryDy=0;" parent="1" source="QEtR1k8EBoc_k3mtnwe0-30" target="QEtR1k8EBoc_k3mtnwe0-26" edge="1">
          <mxGeometry relative="1" as="geometry" />
        </mxCell>
        <mxCell id="QEtR1k8EBoc_k3mtnwe0-34" style="edgeStyle=orthogonalEdgeStyle;rounded=0;orthogonalLoop=1;jettySize=auto;html=1;entryX=0.02;entryY=0.52;entryDx=0;entryDy=0;entryPerimeter=0;" parent="1" source="QEtR1k8EBoc_k3mtnwe0-30" target="QEtR1k8EBoc_k3mtnwe0-23" edge="1">
          <mxGeometry relative="1" as="geometry" />
        </mxCell>
        <mxCell id="QEtR1k8EBoc_k3mtnwe0-51" style="edgeStyle=orthogonalEdgeStyle;rounded=0;orthogonalLoop=1;jettySize=auto;html=1;entryX=0.618;entryY=1.021;entryDx=0;entryDy=0;entryPerimeter=0;" parent="1" source="QEtR1k8EBoc_k3mtnwe0-30" target="QEtR1k8EBoc_k3mtnwe0-17" edge="1">
          <mxGeometry relative="1" as="geometry" />
        </mxCell>
        <mxCell id="QEtR1k8EBoc_k3mtnwe0-30" value="" style="aspect=fixed;html=1;points=[];align=center;image;fontSize=12;image=img/lib/mscae/WebHosting.svg;" parent="1" vertex="1">
          <mxGeometry x="490" y="-986" width="50" height="50" as="geometry" />
        </mxCell>
        <mxCell id="QEtR1k8EBoc_k3mtnwe0-31" value="RASA core" style="text;html=1;strokeColor=none;fillColor=none;align=center;verticalAlign=middle;whiteSpace=wrap;rounded=0;" parent="1" vertex="1">
          <mxGeometry x="60" y="-664.5" width="40" height="20" as="geometry" />
        </mxCell>
        <mxCell id="QEtR1k8EBoc_k3mtnwe0-37" value="" style="group" parent="1" vertex="1" connectable="0">
          <mxGeometry x="379" y="-614.5" width="80" height="50" as="geometry" />
        </mxCell>
        <mxCell id="QEtR1k8EBoc_k3mtnwe0-4" value="" style="aspect=fixed;html=1;points=[];align=center;image;fontSize=12;image=img/lib/mscae/Cognitive_Services.svg;" parent="QEtR1k8EBoc_k3mtnwe0-37" vertex="1">
          <mxGeometry x="30" y="20" width="50" height="30" as="geometry" />
        </mxCell>
        <mxCell id="QEtR1k8EBoc_k3mtnwe0-9" value="" style="aspect=fixed;pointerEvents=1;shadow=0;dashed=0;html=1;strokeColor=none;labelPosition=center;verticalLabelPosition=bottom;verticalAlign=top;align=center;fillColor=#00188D;shape=mxgraph.mscae.enterprise.server_generic" parent="QEtR1k8EBoc_k3mtnwe0-37" vertex="1">
          <mxGeometry width="24" height="50" as="geometry" />
        </mxCell>
        <mxCell id="QEtR1k8EBoc_k3mtnwe0-46" value="Redis брокер" style="text;html=1;strokeColor=none;fillColor=none;align=center;verticalAlign=middle;whiteSpace=wrap;rounded=0;" parent="1" vertex="1">
          <mxGeometry x="260" y="-664.5" width="58" height="20" as="geometry" />
        </mxCell>
        <mxCell id="QEtR1k8EBoc_k3mtnwe0-47" value="Postgres" style="text;html=1;strokeColor=none;fillColor=none;align=center;verticalAlign=middle;whiteSpace=wrap;rounded=0;" parent="1" vertex="1">
          <mxGeometry x="155" y="-664.5" width="58" height="20" as="geometry" />
        </mxCell>
        <mxCell id="QEtR1k8EBoc_k3mtnwe0-53" value="" style="aspect=fixed;html=1;points=[];align=center;image;fontSize=12;image=img/lib/mscae/Cognitive_Services.svg;" parent="1" vertex="1">
          <mxGeometry x="112" y="-614.5" width="50" height="30" as="geometry" />
        </mxCell>
        <mxCell id="QEtR1k8EBoc_k3mtnwe0-55" value="Botfront" style="text;html=1;strokeColor=none;fillColor=none;align=center;verticalAlign=middle;whiteSpace=wrap;rounded=0;" parent="1" vertex="1">
          <mxGeometry x="590" y="-664.5" width="40" height="20" as="geometry" />
        </mxCell>
        <mxCell id="QEtR1k8EBoc_k3mtnwe0-91" style="edgeStyle=orthogonalEdgeStyle;rounded=0;orthogonalLoop=1;jettySize=auto;html=1;entryX=0.694;entryY=0.291;entryDx=0;entryDy=0;entryPerimeter=0;" parent="1" source="QEtR1k8EBoc_k3mtnwe0-56" target="QEtR1k8EBoc_k3mtnwe0-6" edge="1">
          <mxGeometry relative="1" as="geometry" />
        </mxCell>
        <mxCell id="QEtR1k8EBoc_k3mtnwe0-92" style="edgeStyle=orthogonalEdgeStyle;rounded=0;orthogonalLoop=1;jettySize=auto;html=1;entryX=-0.053;entryY=0.32;entryDx=0;entryDy=0;entryPerimeter=0;" parent="1" source="QEtR1k8EBoc_k3mtnwe0-56" target="QEtR1k8EBoc_k3mtnwe0-75" edge="1">
          <mxGeometry relative="1" as="geometry" />
        </mxCell>
        <mxCell id="QEtR1k8EBoc_k3mtnwe0-56" value="" style="shape=image;verticalLabelPosition=bottom;labelBackgroundColor=#ffffff;verticalAlign=top;aspect=fixed;imageAspect=0;image=https://www.yaz.co.jp/tec-blog/wp/wp-content/uploads/2017/06/nginx-logo-224x192.png;" parent="1" vertex="1">
          <mxGeometry x="653" y="-632.21" width="55.67" height="47.71" as="geometry" />
        </mxCell>
        <mxCell id="QEtR1k8EBoc_k3mtnwe0-72" value="" style="rounded=0;whiteSpace=wrap;html=1;" parent="1" vertex="1">
          <mxGeometry x="190" y="-275" width="390" height="120" as="geometry" />
        </mxCell>
        <mxCell id="QEtR1k8EBoc_k3mtnwe0-42" value="Active Directory" style="text;html=1;strokeColor=none;fillColor=none;align=center;verticalAlign=middle;whiteSpace=wrap;rounded=0;" parent="1" vertex="1">
          <mxGeometry x="210" y="-245" width="40" height="20" as="geometry" />
        </mxCell>
        <mxCell id="QEtR1k8EBoc_k3mtnwe0-71" value="" style="aspect=fixed;pointerEvents=1;shadow=0;dashed=0;html=1;strokeColor=none;labelPosition=center;verticalLabelPosition=bottom;verticalAlign=top;align=center;fillColor=#00188D;shape=mxgraph.mscae.enterprise.server_directory" parent="1" vertex="1">
          <mxGeometry x="210" y="-215" width="36" height="50" as="geometry" />
        </mxCell>
        <mxCell id="QEtR1k8EBoc_k3mtnwe0-68" value="" style="aspect=fixed;pointerEvents=1;shadow=0;dashed=0;html=1;strokeColor=none;labelPosition=center;verticalLabelPosition=bottom;verticalAlign=top;align=center;fillColor=#00188D;shape=mxgraph.mscae.enterprise.server_generic" parent="1" vertex="1">
          <mxGeometry x="310" y="-215" width="24" height="50" as="geometry" />
        </mxCell>
        <mxCell id="QEtR1k8EBoc_k3mtnwe0-70" value="" style="aspect=fixed;pointerEvents=1;shadow=0;dashed=0;html=1;strokeColor=none;labelPosition=center;verticalLabelPosition=bottom;verticalAlign=top;align=center;fillColor=#00188D;shape=mxgraph.mscae.enterprise.shared_folder" parent="1" vertex="1">
          <mxGeometry x="341" y="-199" width="27" height="31.4" as="geometry" />
        </mxCell>
        <mxCell id="QEtR1k8EBoc_k3mtnwe0-73" value="File Server" style="text;html=1;strokeColor=none;fillColor=none;align=center;verticalAlign=middle;whiteSpace=wrap;rounded=0;" parent="1" vertex="1">
          <mxGeometry x="302" y="-245" width="40" height="20" as="geometry" />
        </mxCell>
        <mxCell id="QEtR1k8EBoc_k3mtnwe0-75" value="" style="aspect=fixed;pointerEvents=1;shadow=0;dashed=0;html=1;strokeColor=none;labelPosition=center;verticalLabelPosition=bottom;verticalAlign=top;align=center;fillColor=#00188D;shape=mxgraph.mscae.enterprise.database_server" parent="1" vertex="1">
          <mxGeometry x="742" y="-624.5" width="38" height="50" as="geometry" />
        </mxCell>
        <mxCell id="QEtR1k8EBoc_k3mtnwe0-76" value="Mongodb" style="text;html=1;strokeColor=none;fillColor=none;align=center;verticalAlign=middle;whiteSpace=wrap;rounded=0;" parent="1" vertex="1">
          <mxGeometry x="740" y="-662.21" width="40" height="20" as="geometry" />
        </mxCell>
        <mxCell id="QEtR1k8EBoc_k3mtnwe0-14" value="" style="aspect=fixed;html=1;points=[];align=center;image;fontSize=12;image=https://webinaronline.ir/userfiles/files/1/LOGO/redmine.png;" parent="1" vertex="1">
          <mxGeometry x="355" y="-266.22" width="185.9" height="152.44" as="geometry" />
        </mxCell>
        <mxCell id="QEtR1k8EBoc_k3mtnwe0-79" value="" style="aspect=fixed;html=1;points=[];align=center;image;fontSize=12;image=img/lib/mscae/On_Premises_Data_Gateways.svg;" parent="1" vertex="1">
          <mxGeometry x="515" y="-217.60000000000002" width="50" height="50" as="geometry" />
        </mxCell>
        <mxCell id="QEtR1k8EBoc_k3mtnwe0-80" value="Network services" style="text;html=1;strokeColor=none;fillColor=none;align=center;verticalAlign=middle;whiteSpace=wrap;rounded=0;" parent="1" vertex="1">
          <mxGeometry x="520" y="-245" width="40" height="20" as="geometry" />
        </mxCell>
        <mxCell id="QEtR1k8EBoc_k3mtnwe0-81" style="edgeStyle=orthogonalEdgeStyle;rounded=0;orthogonalLoop=1;jettySize=auto;html=1;exitX=0.25;exitY=1;exitDx=0;exitDy=0;entryX=0.75;entryY=0;entryDx=0;entryDy=0;" parent="1" source="QEtR1k8EBoc_k3mtnwe0-54" target="QEtR1k8EBoc_k3mtnwe0-42" edge="1">
          <mxGeometry relative="1" as="geometry">
            <mxPoint x="90" y="-304.5" as="targetPoint" />
          </mxGeometry>
        </mxCell>
        <mxCell id="QEtR1k8EBoc_k3mtnwe0-89" value="" style="shape=image;verticalLabelPosition=bottom;labelBackgroundColor=#ffffff;verticalAlign=top;aspect=fixed;imageAspect=0;image=https://igorosa.com/wp-content/uploads/2020/01/fast-api-400.png;" parent="1" vertex="1">
          <mxGeometry x="375.67" y="-649.5" width="83.33" height="30" as="geometry" />
        </mxCell>
        <mxCell id="QEtR1k8EBoc_k3mtnwe0-100" style="edgeStyle=orthogonalEdgeStyle;rounded=0;orthogonalLoop=1;jettySize=auto;html=1;exitX=0;exitY=0.5;exitDx=0;exitDy=0;entryX=0.5;entryY=1;entryDx=0;entryDy=0;" parent="1" source="QEtR1k8EBoc_k3mtnwe0-94" target="QEtR1k8EBoc_k3mtnwe0-25" edge="1">
          <mxGeometry relative="1" as="geometry" />
        </mxCell>
        <mxCell id="QEtR1k8EBoc_k3mtnwe0-101" style="edgeStyle=orthogonalEdgeStyle;rounded=0;orthogonalLoop=1;jettySize=auto;html=1;exitX=0.25;exitY=1;exitDx=0;exitDy=0;entryX=1;entryY=0;entryDx=0;entryDy=0;" parent="1" source="QEtR1k8EBoc_k3mtnwe0-94" target="QEtR1k8EBoc_k3mtnwe0-73" edge="1">
          <mxGeometry relative="1" as="geometry" />
        </mxCell>
        <mxCell id="QEtR1k8EBoc_k3mtnwe0-94" value="" style="rounded=0;whiteSpace=wrap;html=1;" parent="1" vertex="1">
          <mxGeometry x="370" y="-534.5" width="180" height="60" as="geometry" />
        </mxCell>
        <mxCell id="QEtR1k8EBoc_k3mtnwe0-93" value="" style="shape=image;verticalLabelPosition=bottom;labelBackgroundColor=#ffffff;verticalAlign=top;aspect=fixed;imageAspect=0;image=https://s19386.pcdn.co/wp-content/uploads/2018/08/GitLab-Logo-Home-Page-1-300x95.png;" parent="1" vertex="1">
          <mxGeometry x="385.9" y="-527" width="142.11" height="45" as="geometry" />
        </mxCell>
        <mxCell id="QEtR1k8EBoc_k3mtnwe0-95" value="" style="aspect=fixed;pointerEvents=1;shadow=0;dashed=0;html=1;strokeColor=none;labelPosition=center;verticalLabelPosition=bottom;verticalAlign=top;align=center;fillColor=#00188D;shape=mxgraph.mscae.enterprise.database_server" parent="1" vertex="1">
          <mxGeometry x="491" y="-614.5" width="38" height="50" as="geometry" />
        </mxCell>
        <mxCell id="QEtR1k8EBoc_k3mtnwe0-96" value="Postgres" style="text;html=1;strokeColor=none;fillColor=none;align=center;verticalAlign=middle;whiteSpace=wrap;rounded=0;" parent="1" vertex="1">
          <mxGeometry x="476" y="-644.5" width="58" height="20" as="geometry" />
        </mxCell>
        <mxCell id="QEtR1k8EBoc_k3mtnwe0-97" style="edgeStyle=orthogonalEdgeStyle;rounded=0;orthogonalLoop=1;jettySize=auto;html=1;entryX=-0.132;entryY=0.7;entryDx=0;entryDy=0;entryPerimeter=0;" parent="1" source="QEtR1k8EBoc_k3mtnwe0-4" target="QEtR1k8EBoc_k3mtnwe0-95" edge="1">
          <mxGeometry relative="1" as="geometry" />
        </mxCell>
        <mxCell id="QEtR1k8EBoc_k3mtnwe0-104" value="" style="aspect=fixed;html=1;points=[];align=center;image;fontSize=12;image=img/lib/mscae/Docker.svg;" parent="1" vertex="1">
          <mxGeometry x="203" y="-554.5" width="50" height="41" as="geometry" />
        </mxCell>
        <mxCell id="cIj803qcDQ27mRyemXXH-1" value="&lt;div style=&quot;font-size: 22px&quot;&gt;&lt;font style=&quot;font-size: 22px&quot;&gt;Текущая архитектура в iPavlov&lt;/font&gt;&lt;/div&gt;&lt;div style=&quot;font-size: 22px&quot;&gt;&lt;font style=&quot;font-size: 22px&quot;&gt;&lt;br&gt;&lt;/font&gt;&lt;/div&gt;" style="text;html=1;strokeColor=none;fillColor=none;align=center;verticalAlign=middle;whiteSpace=wrap;rounded=0;" vertex="1" parent="1">
          <mxGeometry x="220" y="-1060" width="424" height="20" as="geometry" />
        </mxCell>
      </root>
    </mxGraphModel>
  </diagram>
</mxfile>
